<?xml version="1.0" encoding="iso-8859-1"?>
<!-- Generator: Adobe Illustrator 18.1.1, SVG Export Plug-In . SVG Version: 6.00 Build 0)  -->
<svg version="1.1" id="Capa_1" xmlns="http://www.w3.org/2000/svg" xmlns:xlink="http://www.w3.org/1999/xlink" x="0px" y="0px"
	 viewBox="0 0 17.347 17.347" style="enable-background:new 0 0 17.347 17.347;" xml:space="preserve">
<g>
	<g>
		<rect x="1.791" y="4.807" style="fill:#030104;" width="6.638" height="1.062"/>
		<path style="fill:#030104;" d="M12.831,11.46c0.117-0.176,0.309-0.354,0.504-0.51H0.956V3.774h14.947v3.881l0.956-0.507v-5.35H0
			v10.108h12.534L12.831,11.46z"/>
		<rect x="1.791" y="6.671" style="fill:#030104;" width="12.066" height="1.063"/>
		<path style="fill:#030104;" d="M17.343,7.704l-2.591,1.372l-0.615,1.928l0.578,0.38l1.353-2.03
			c-0.076-0.113-0.082-0.267-0.002-0.388c0.106-0.159,0.322-0.202,0.482-0.097c0.16,0.107,0.203,0.322,0.097,0.482
			c-0.077,0.117-0.213,0.168-0.342,0.148l-1.356,2.036l0.595,0.391l1.551-1.277l0.254-2.95L17.343,7.704z"/>
		<path style="fill:#030104;" d="M13.096,12.045c-0.212,0.318-1.514,2.271-1.514,2.271l0.927,0.617l0.276,0.184l0.375,0.251
			l0.273,0.182c0,0,1.311-1.967,1.513-2.271c0.203-0.304,0.362-1.138,0.362-1.138l-1.283-0.854
			C14.026,11.287,13.307,11.726,13.096,12.045z"/>
	</g>
</g>
<g>
</g>
<g>
</g>
<g>
</g>
<g>
</g>
<g>
</g>
<g>
</g>
<g>
</g>
<g>
</g>
<g>
</g>
<g>
</g>
<g>
</g>
<g>
</g>
<g>
</g>
<g>
</g>
<g>
</g>
</svg>
